<!DOCTYPE svg PUBLIC "-//W3C//DTD SVG 1.1//EN" "http://www.w3.org/Graphics/SVG/1.1/DTD/svg11.dtd">
<!-- Uploaded to: SVG Repo, www.svgrepo.com, Transformed by: SVG Repo Mixer Tools -->
<svg width="800px" height="800px" viewBox="-2.4 -2.4 28.80 28.80" fill="none" xmlns="http://www.w3.org/2000/svg">
<g id="SVGRepo_bgCarrier" stroke-width="0">
<path transform="translate(-2.4, -2.4), scale(0.8999999999999999)" d="M16,27.98501022479364C18.1899177315371,28.30324786017626,20.2808171639077,29.902606694963453,22.417081065923856,29.325206136930106C24.535065349190916,28.752746289665875,25.737815001410027,26.5647309106897,27.22445665975201,24.951205490816108C28.79692916909379,23.244523620549483,31.417967447549554,21.84597026041181,31.446172786769267,19.525488142882804C31.476351281838404,17.042672474673306,28.595288171879197,15.562714414996204,27.36478728378,13.40606146464506C26.490873331927098,11.874385119796576,25.861784842758485,10.28429909718339,25.233406234805784,8.636604239001514C24.351023909668147,6.3228768114928915,25.129369411081136,2.7498582229064352,22.894301620570772,1.6838351704614638C20.654758820494774,0.6156777472483512,18.395125378689222,3.584713660602195,16,4.232700276587691C14.254133676579492,4.705033800728885,12.325095100448047,4.200511596717502,10.695097184067112,4.984255795978518C9.064803577732789,5.768142170443207,8.250507317205301,7.58533573755781,6.7945615217358135,8.658907780590177C4.804657316659331,10.126205209883398,1.1790237139621285,10.082942750172316,0.5410075772350567,12.471585858857125C-0.0853318956382042,14.816513172530986,2.922959993727341,16.59635533785171,4.108781275543318,18.7140930764032C4.99502922725555,20.29682798075636,5.626916200029804,21.95554923795823,6.678972509966844,23.433271380342784C7.772988604010857,24.96993038901376,8.72732572555902,26.754411425220006,10.422337004095441,27.58213655386557C12.118617245913585,28.41048135555338,14.131892788128177,27.71353791641152,16,27.98501022479364" fill="#ff6929" strokewidth="0"/>
</g>
<g id="SVGRepo_tracerCarrier" stroke-linecap="round" stroke-linejoin="round"/>
<g id="SVGRepo_iconCarrier"> <path fill-rule="evenodd" clip-rule="evenodd" d="M12 4C11.4477 4 11 4.44772 11 5C11 5.35894 11.1884 5.67471 11.4766 5.8524C11.6281 5.94587 11.8062 6 12 6C12.1938 6 12.3719 5.94587 12.5234 5.8524C12.8116 5.67471 13 5.35894 13 5C13 4.44772 12.5523 4 12 4ZM9 5C9 3.34315 10.3431 2 12 2C13.6569 2 15 3.34315 15 5C15 5.71445 14.75 6.37013 14.334 6.88471L19.3691 15.0667C19.5728 15.023 19.7839 15 20 15C21.6569 15 23 16.3431 23 18C23 19.6569 21.6569 21 20 21C18.6938 21 17.5825 20.1652 17.1707 19H6.82929C6.41746 20.1652 5.30622 21 4 21C2.34315 21 1 19.6569 1 18C1 16.3431 2.34315 15 4 15C4.21608 15 4.42723 15.023 4.63095 15.0667L9.666 6.88471C9.25004 6.37013 9 5.71445 9 5ZM11.3691 7.93333L6.334 16.1153C6.54576 16.3772 6.71451 16.6758 6.82917 17H17.1708C17.2855 16.6758 17.4542 16.3772 17.666 16.1153L12.6309 7.93333C12.4272 7.97702 12.2161 8 12 8C11.7839 8 11.5728 7.97702 11.3691 7.93333ZM4 17C3.44772 17 3 17.4477 3 18C3 18.5523 3.44772 19 4 19C4.55228 19 5 18.5523 5 18C5 17.6411 4.81156 17.3253 4.52344 17.1476C4.37186 17.0541 4.19378 17 4 17ZM20 17C19.8062 17 19.6281 17.0541 19.4766 17.1476C19.1884 17.3253 19 17.6411 19 18C19 18.5523 19.4477 19 20 19C20.5523 19 21 18.5523 21 18C21 17.4477 20.5523 17 20 17Z" fill="#241919"/> </g>
</svg>