<svg width="151" height="28" viewBox="0 0 151 28" fill="none" xmlns="http://www.w3.org/2000/svg">
<g clip-path="url(#clip0_1_2)">
<path d="M 39.389 14.192 Q 39.389 11.852 40.433 10.196 Q 41.477 8.54 43.187 7.676 Q 44.897 6.812 46.949 6.812 Q 48.749 6.812 50.117 7.262 Q 51.485 7.712 52.565 8.486 Q 53.645 9.26 54.473 10.124 L 54.473 3.572 Q 52.961 2.384 51.161 1.7 Q 49.361 1.016 46.589 1.016 Q 43.565 1.016 41.009 1.952 Q 38.453 2.888 36.617 4.652 Q 34.781 6.416 33.773 8.828 Q 32.765 11.24 32.765 14.192 Q 32.765 17.144 33.773 19.556 Q 34.781 21.968 36.617 23.732 Q 38.453 25.496 41.009 26.432 Q 43.565 27.368 46.589 27.368 Q 49.361 27.368 51.161 26.684 Q 52.961 26 54.473 24.812 L 54.473 18.26 Q 53.645 19.124 52.565 19.88 Q 51.485 20.636 50.117 21.104 Q 48.749 21.572 46.949 21.572 Q 44.897 21.572 43.187 20.708 Q 41.477 19.844 40.433 18.17 Q 39.389 16.496 39.389 14.192 Z" style="fill: rgb(55, 55, 55); white-space: pre;"/>
<path d="M 64.259 21.932 L 77.579 21.932 L 77.183 17.288 L 64.691 17.288 Z M 70.847 10.844 L 74.411 19.016 L 74.195 20.564 L 77.219 26.792 L 84.131 26.792 L 70.847 0.008 L 57.599 26.792 L 64.475 26.792 L 67.607 20.312 L 67.319 18.98 Z" style="fill: rgb(55, 55, 55); white-space: pre;"/>
<path d="M 88.158 1.592 L 88.158 26.792 L 94.35 26.792 L 94.35 1.592 Z" style="fill: rgb(55, 55, 55); white-space: pre;"/>
<path d="M 106.084 14.192 Q 106.084 11.96 106.966 10.25 Q 107.848 8.54 109.45 7.568 Q 111.052 6.596 113.212 6.596 Q 115.408 6.596 116.992 7.568 Q 118.576 8.54 119.44 10.25 Q 120.304 11.96 120.304 14.192 Q 120.304 16.424 119.422 18.134 Q 118.54 19.844 116.938 20.816 Q 115.336 21.788 113.212 21.788 Q 111.052 21.788 109.45 20.816 Q 107.848 19.844 106.966 18.134 Q 106.084 16.424 106.084 14.192 Z M 99.64 14.192 Q 99.64 17.108 100.63 19.556 Q 101.62 22.004 103.438 23.804 Q 105.256 25.604 107.74 26.594 Q 110.224 27.584 113.212 27.584 Q 116.164 27.584 118.648 26.594 Q 121.132 25.604 122.95 23.804 Q 124.768 22.004 125.758 19.556 Q 126.748 17.108 126.748 14.192 Q 126.748 11.276 125.74 8.864 Q 124.732 6.452 122.896 4.688 Q 121.06 2.924 118.594 1.97 Q 116.128 1.016 113.212 1.016 Q 110.332 1.016 107.848 1.97 Q 105.364 2.924 103.528 4.688 Q 101.692 6.452 100.666 8.864 Q 99.64 11.276 99.64 14.192 Z" style="fill: rgb(55, 55, 55); white-space: pre;"/>
<path d="M 14.22 19.669 C 14.22 19.823 14.339 19.949 14.482 19.949 L 20.957 19.949 C 21.101 19.949 21.22 19.823 21.22 19.669 L 21.22 17.989 C 21.22 17.835 21.101 17.709 20.957 17.709 L 14.482 17.709 C 14.339 17.709 14.22 17.835 14.22 17.989 L 14.22 19.669 Z M 7.398 19.882 L 14.118 14.247 C 14.251 14.135 14.251 13.929 14.118 13.817 L 7.398 8.185 C 7.358 8.151 7.308 8.129 7.255 8.121 C 7.203 8.114 7.149 8.122 7.101 8.145 C 7.052 8.167 7.012 8.203 6.983 8.248 C 6.955 8.293 6.94 8.345 6.94 8.399 L 6.94 10.593 C 6.94 10.677 6.975 10.754 7.041 10.807 L 10.884 14.034 L 7.041 17.261 C 7.01 17.287 6.985 17.319 6.967 17.356 C 6.95 17.393 6.94 17.433 6.94 17.474 L 6.94 19.669 C 6.94 19.907 7.216 20.036 7.398 19.882 Z M 26.96 0.034 L 1.2 0.034 C 0.58 0.034 0.08 0.534 0.08 1.154 L 0.08 26.914 C 0.08 27.533 0.58 28.034 1.2 28.034 L 26.96 28.034 C 27.579 28.034 28.08 27.533 28.08 26.914 L 28.08 1.154 C 28.08 0.534 27.579 0.034 26.96 0.034 Z M 25.56 25.514 L 2.6 25.514 L 2.6 2.554 L 25.56 2.554 L 25.56 25.514 Z" fill="#FF651C"/>
</g>
<defs>
<clipPath id="clip0_1_2">
<rect width="151" height="28" fill="white"/>
</clipPath>
</defs>
</svg>