<?xml version="1.0" encoding="utf-8"?>
<svg viewBox="0 0 500 500" xmlns="http://www.w3.org/2000/svg">
  <path d="M 128.9 96.827 Q 128.9 94.307 130.034 92.471 Q 131.168 90.635 133.004 89.645 Q 134.84 88.655 137 88.655 Q 138.8 88.655 140.204 89.123 Q 141.608 89.591 142.742 90.383 Q 143.876 91.175 144.704 92.111 L 144.704 86.315 Q 143.156 85.091 141.338 84.407 Q 139.52 83.723 136.748 83.723 Q 133.868 83.723 131.402 84.659 Q 128.936 85.595 127.118 87.359 Q 125.3 89.123 124.31 91.517 Q 123.32 93.911 123.32 96.827 Q 123.32 99.743 124.31 102.137 Q 125.3 104.531 127.118 106.295 Q 128.936 108.059 131.402 108.995 Q 133.868 109.931 136.748 109.931 Q 139.52 109.931 141.338 109.247 Q 143.156 108.563 144.704 107.339 L 144.704 101.543 Q 143.876 102.479 142.742 103.271 Q 141.608 104.063 140.204 104.531 Q 138.8 104.999 137 104.999 Q 134.84 104.999 133.004 104.009 Q 131.168 103.019 130.034 101.165 Q 128.9 99.311 128.9 96.827 Z" style="fill: rgb(55, 55, 55); white-space: pre;"/>
  <path d="M 154.166 103.703 L 167.486 103.703 L 166.874 99.635 L 154.778 99.635 Z M 160.754 92.399 L 164.534 101.147 L 164.462 102.443 L 167.702 109.427 L 173.534 109.427 L 160.754 82.751 L 147.974 109.427 L 153.77 109.427 L 157.082 102.227 L 156.974 101.075 Z" style="fill: rgb(55, 55, 55); white-space: pre;"/>
  <path d="M 177.666 84.227 L 177.666 109.427 L 182.886 109.427 L 182.886 84.227 Z" style="fill: rgb(55, 55, 55); white-space: pre;"/>
  <path d="M 193.717 96.827 Q 193.717 94.415 194.725 92.543 Q 195.733 90.671 197.497 89.591 Q 199.261 88.511 201.601 88.511 Q 203.977 88.511 205.741 89.591 Q 207.505 90.671 208.477 92.543 Q 209.449 94.415 209.449 96.827 Q 209.449 99.239 208.459 101.111 Q 207.469 102.983 205.705 104.063 Q 203.941 105.143 201.601 105.143 Q 199.261 105.143 197.497 104.063 Q 195.733 102.983 194.725 101.111 Q 193.717 99.239 193.717 96.827 Z M 188.281 96.827 Q 188.281 99.671 189.253 102.101 Q 190.225 104.531 192.025 106.331 Q 193.825 108.131 196.255 109.121 Q 198.685 110.111 201.601 110.111 Q 204.517 110.111 206.947 109.121 Q 209.377 108.131 211.159 106.331 Q 212.941 104.531 213.931 102.101 Q 214.921 99.671 214.921 96.827 Q 214.921 93.947 213.931 91.553 Q 212.941 89.159 211.123 87.395 Q 209.305 85.631 206.893 84.677 Q 204.481 83.723 201.601 83.723 Q 198.757 83.723 196.327 84.677 Q 193.897 85.631 192.097 87.395 Q 190.297 89.159 189.289 91.553 Q 188.281 93.947 188.281 96.827 Z" style="fill: rgb(55, 55, 55); white-space: pre;"/>
  <path d="M 104.703 102.304 C 104.703 102.458 104.822 102.584 104.965 102.584 L 111.44 102.584 C 111.584 102.584 111.703 102.458 111.703 102.304 L 111.703 100.624 C 111.703 100.47 111.584 100.344 111.44 100.344 L 104.965 100.344 C 104.822 100.344 104.703 100.47 104.703 100.624 L 104.703 102.304 Z M 97.881 102.517 L 104.601 96.882 C 104.734 96.77 104.734 96.564 104.601 96.452 L 97.881 90.82 C 97.841 90.786 97.791 90.764 97.738 90.756 C 97.686 90.749 97.632 90.757 97.584 90.78 C 97.535 90.802 97.495 90.838 97.466 90.883 C 97.438 90.928 97.423 90.98 97.423 91.034 L 97.423 93.228 C 97.423 93.312 97.458 93.389 97.524 93.442 L 101.367 96.669 L 97.524 99.896 C 97.493 99.922 97.468 99.954 97.45 99.991 C 97.433 100.028 97.423 100.068 97.423 100.109 L 97.423 102.304 C 97.423 102.542 97.699 102.671 97.881 102.517 Z M 117.443 82.669 L 91.683 82.669 C 91.063 82.669 90.563 83.169 90.563 83.789 L 90.563 109.549 C 90.563 110.168 91.063 110.669 91.683 110.669 L 117.443 110.669 C 118.062 110.669 118.563 110.168 118.563 109.549 L 118.563 83.789 C 118.563 83.169 118.062 82.669 117.443 82.669 Z M 116.043 108.149 L 93.083 108.149 L 93.083 85.189 L 116.043 85.189 L 116.043 108.149 Z" fill="#FF651C"/>
</svg>