<?xml version="1.0" encoding="utf-8"?>
<svg viewBox="0 0 500 500" xmlns="http://www.w3.org/2000/svg">
  <path d="M 38.417 14.192 Q 38.417 11.672 39.551 9.836 Q 40.685 8 42.521 7.01 Q 44.357 6.02 46.517 6.02 Q 48.317 6.02 49.721 6.488 Q 51.125 6.956 52.259 7.748 Q 53.393 8.54 54.221 9.476 L 54.221 3.68 Q 52.673 2.456 50.855 1.772 Q 49.037 1.088 46.265 1.088 Q 43.385 1.088 40.919 2.024 Q 38.453 2.96 36.635 4.724 Q 34.817 6.488 33.827 8.882 Q 32.837 11.276 32.837 14.192 Q 32.837 17.108 33.827 19.502 Q 34.817 21.896 36.635 23.66 Q 38.453 25.424 40.919 26.36 Q 43.385 27.296 46.265 27.296 Q 49.037 27.296 50.855 26.612 Q 52.673 25.928 54.221 24.704 L 54.221 18.908 Q 53.393 19.844 52.259 20.636 Q 51.125 21.428 49.721 21.896 Q 48.317 22.364 46.517 22.364 Q 44.357 22.364 42.521 21.374 Q 40.685 20.384 39.551 18.53 Q 38.417 16.676 38.417 14.192 Z" style="fill: rgb(55, 55, 55); white-space: pre;"/>
  <path d="M 63.683 21.068 L 77.003 21.068 L 76.391 17 L 64.295 17 Z M 70.271 9.764 L 74.051 18.512 L 73.979 19.808 L 77.219 26.792 L 83.051 26.792 L 70.271 0.116 L 57.491 26.792 L 63.287 26.792 L 66.599 19.592 L 66.491 18.44 Z" style="fill: rgb(55, 55, 55); white-space: pre;"/>
  <path d="M 87.183 1.592 L 87.183 26.792 L 92.403 26.792 L 92.403 1.592 Z" style="fill: rgb(55, 55, 55); white-space: pre;"/>
  <path d="M 103.234 14.192 Q 103.234 11.78 104.242 9.908 Q 105.25 8.036 107.014 6.956 Q 108.778 5.876 111.118 5.876 Q 113.494 5.876 115.258 6.956 Q 117.022 8.036 117.994 9.908 Q 118.966 11.78 118.966 14.192 Q 118.966 16.604 117.976 18.476 Q 116.986 20.348 115.222 21.428 Q 113.458 22.508 111.118 22.508 Q 108.778 22.508 107.014 21.428 Q 105.25 20.348 104.242 18.476 Q 103.234 16.604 103.234 14.192 Z M 97.798 14.192 Q 97.798 17.036 98.77 19.466 Q 99.742 21.896 101.542 23.696 Q 103.342 25.496 105.772 26.486 Q 108.202 27.476 111.118 27.476 Q 114.034 27.476 116.464 26.486 Q 118.894 25.496 120.676 23.696 Q 122.458 21.896 123.448 19.466 Q 124.438 17.036 124.438 14.192 Q 124.438 11.312 123.448 8.918 Q 122.458 6.524 120.64 4.76 Q 118.822 2.996 116.41 2.042 Q 113.998 1.088 111.118 1.088 Q 108.274 1.088 105.844 2.042 Q 103.414 2.996 101.614 4.76 Q 99.814 6.524 98.806 8.918 Q 97.798 11.312 97.798 14.192 Z" style="fill: rgb(55, 55, 55); white-space: pre;"/>
  <path d="M 14.22 19.669 C 14.22 19.823 14.339 19.949 14.482 19.949 L 20.957 19.949 C 21.101 19.949 21.22 19.823 21.22 19.669 L 21.22 17.989 C 21.22 17.835 21.101 17.709 20.957 17.709 L 14.482 17.709 C 14.339 17.709 14.22 17.835 14.22 17.989 L 14.22 19.669 Z M 7.398 19.882 L 14.118 14.247 C 14.251 14.135 14.251 13.929 14.118 13.817 L 7.398 8.185 C 7.358 8.151 7.308 8.129 7.255 8.121 C 7.203 8.114 7.149 8.122 7.101 8.145 C 7.052 8.167 7.012 8.203 6.983 8.248 C 6.955 8.293 6.94 8.345 6.94 8.399 L 6.94 10.593 C 6.94 10.677 6.975 10.754 7.041 10.807 L 10.884 14.034 L 7.041 17.261 C 7.01 17.287 6.985 17.319 6.967 17.356 C 6.95 17.393 6.94 17.433 6.94 17.474 L 6.94 19.669 C 6.94 19.907 7.216 20.036 7.398 19.882 Z M 26.96 0.034 L 1.2 0.034 C 0.58 0.034 0.08 0.534 0.08 1.154 L 0.08 26.914 C 0.08 27.533 0.58 28.034 1.2 28.034 L 26.96 28.034 C 27.579 28.034 28.08 27.533 28.08 26.914 L 28.08 1.154 C 28.08 0.534 27.579 0.034 26.96 0.034 Z M 25.56 25.514 L 2.6 25.514 L 2.6 2.554 L 25.56 2.554 L 25.56 25.514 Z" fill="#FF651C"/>
</svg>